<?xml version="1.0" encoding="utf-8"?>
<!-- Generator: Adobe Illustrator 24.0.2, SVG Export Plug-In . SVG Version: 6.00 Build 0)  -->
<svg version="1.1" xmlns="http://www.w3.org/2000/svg" xmlns:xlink="http://www.w3.org/1999/xlink" x="0px" y="0px"
	 viewBox="0 0 24 24" style="enable-background:new 0 0 24 24;" xml:space="preserve">
<style type="text/css">
	.st0{fill:none;}
	.st1{fill:#121331;}
</style>
<g id="bounding_box">
	<rect class="st0" width="24" height="24"/>
</g>
<g id="design">
	<g>
		<path class="st1" d="M20.16,4.35l-8-1.34c-0.1-0.01-0.22-0.01-0.32,0l-8,1.34C3.35,4.43,3,4.84,3,5.33V7c0,0.55,0.45,1,1,1h2v7.5
			H4.98c-0.56,0-1,0.45-1,1s0.44,1,1,1h14.05c0.56,0,1-0.45,1-1s-0.44-1-1-1H18V8h2c0.55,0,1-0.45,1-1V5.33
			C21,4.84,20.65,4.43,20.16,4.35z M8,8h3v7.5H8V8z M13,15.5V8h3v7.5H13z"/>
		<path class="st1" d="M20,21H4c-0.55,0-1-0.45-1-1s0.45-1,1-1h16c0.55,0,1,0.45,1,1S20.55,21,20,21z"/>
	</g>
</g>
</svg>
